<svg width="121" height="20" viewBox="0 0 121 20" fill="none" xmlns="http://www.w3.org/2000/svg">
<path d="M4.87887 19.7434C5.29316 19.7434 5.6832 19.7037 6.04901 19.6244C6.41481 19.5451 6.75417 19.4365 7.06709 19.2988C7.38001 19.161 7.66648 19.0003 7.92651 18.8166C8.18654 18.6329 8.42233 18.4367 8.63388 18.228C8.67796 18.4785 8.72864 18.7122 8.78593 18.9293C8.84323 19.1464 8.91595 19.3343 9.0041 19.4929H12.2831V19.28C11.9217 18.5536 11.741 17.581 11.741 16.362V10.3507C11.741 9.5742 11.6044 8.89584 11.3311 8.31558C11.0579 7.73532 10.6745 7.25107 10.1808 6.86284C9.68723 6.47461 9.10106 6.18239 8.42233 5.98619C7.74361 5.78999 7.00319 5.69188 6.20106 5.69188C5.30197 5.69188 4.48883 5.80877 3.76162 6.04255C3.03442 6.27632 2.4152 6.58732 1.90395 6.97555C1.3927 7.36379 0.998251 7.80629 0.720592 8.30305C0.442933 8.79982 0.304103 9.31538 0.304103 9.84972H3.51702C3.51702 9.5909 3.57652 9.34877 3.69551 9.12335C3.81451 8.89793 3.98199 8.70381 4.19794 8.541C4.4139 8.3782 4.67614 8.24879 4.98465 8.15277C5.29316 8.05676 5.63693 8.00875 6.01595 8.00875C6.86215 8.00875 7.49239 8.21956 7.90668 8.64119C8.32096 9.06282 8.52811 9.62429 8.52811 10.3256V11.2148H6.50516C5.47386 11.2148 4.55493 11.3129 3.7484 11.5091C2.94187 11.7053 2.26094 11.9913 1.70562 12.367C1.1503 12.7427 0.727203 13.2102 0.436322 13.7696C0.145441 14.329 0 14.9719 0 15.6982C0 16.2743 0.121201 16.8087 0.363602 17.3013C0.606003 17.7939 0.940957 18.2217 1.36846 18.5849C1.79597 18.9481 2.30942 19.232 2.90881 19.4365C3.5082 19.6411 4.16489 19.7434 4.87887 19.7434ZM5.47386 17.3013C5.10364 17.3013 4.77971 17.2533 4.50205 17.1572C4.22439 17.0612 3.9886 16.9276 3.79468 16.7565C3.60076 16.5853 3.45532 16.3829 3.35836 16.1491C3.2614 15.9153 3.21292 15.6607 3.21292 15.3851C3.21292 14.6671 3.51261 14.1119 4.112 13.7195C4.71139 13.3271 5.60607 13.1309 6.79604 13.1309H8.52811V15.6857C8.41352 15.8861 8.25926 16.0844 8.06534 16.2806C7.87142 16.4768 7.64445 16.65 7.38442 16.8003C7.12439 16.9506 6.8335 17.0717 6.51177 17.1635C6.19004 17.2553 5.84407 17.3013 5.47386 17.3013ZM21.0228 19.7434C21.8161 19.7434 22.5609 19.6202 23.2573 19.3739C23.9536 19.1276 24.564 18.7895 25.0885 18.3595C25.613 17.9295 26.0317 17.4265 26.3446 16.8504C26.6575 16.2743 26.8272 15.6607 26.8536 15.0094H23.8258C23.8082 15.3434 23.7222 15.6523 23.568 15.9362C23.4137 16.2201 23.211 16.4643 22.9598 16.6688C22.7086 16.8734 22.4133 17.032 22.0739 17.1447C21.7346 17.2574 21.371 17.3138 20.9831 17.3138C20.322 17.3138 19.7821 17.1885 19.3634 16.9381C18.9447 16.6876 18.612 16.3578 18.3652 15.9487C18.1184 15.5396 17.9487 15.0741 17.8561 14.5523C17.7636 14.0305 17.7173 13.4941 17.7173 12.943V12.5047C17.7173 11.9704 17.7636 11.4402 17.8561 10.9142C17.9487 10.3882 18.1184 9.92069 18.3652 9.51158C18.612 9.10248 18.9469 8.7706 19.37 8.51596C19.7931 8.26131 20.3308 8.13399 20.9831 8.13399C21.415 8.13399 21.8029 8.20495 22.1466 8.34689C22.4904 8.48882 22.7835 8.68085 23.0259 8.92297C23.2683 9.1651 23.4578 9.44896 23.5944 9.77458C23.7311 10.1002 23.8082 10.4425 23.8258 10.8015H26.8536C26.8272 10.0501 26.6707 9.3613 26.3842 8.73512C26.0978 8.10894 25.7011 7.57042 25.1943 7.11958C24.6874 6.66873 24.0792 6.31807 23.3697 6.06759C22.6601 5.81712 21.8734 5.69188 21.0096 5.69188C19.9077 5.69188 18.9514 5.87139 18.1404 6.2304C17.3295 6.58941 16.6529 7.07992 16.1109 7.70192C15.5688 8.32393 15.1655 9.04821 14.9011 9.87477C14.6366 10.7013 14.5044 11.578 14.5044 12.5047V12.943C14.5044 13.8698 14.6366 14.7464 14.9011 15.573C15.1655 16.3996 15.5688 17.1218 16.1109 17.7396C16.6529 18.3574 17.3317 18.8458 18.147 19.2048C18.9624 19.5639 19.921 19.7434 21.0228 19.7434ZM35.1966 19.7434C35.9899 19.7434 36.7348 19.6202 37.4311 19.3739C38.1275 19.1276 38.7379 18.7895 39.2624 18.3595C39.7868 17.9295 40.2055 17.4265 40.5184 16.8504C40.8313 16.2743 41.001 15.6607 41.0275 15.0094H37.9997C37.982 15.3434 37.8961 15.6523 37.7418 15.9362C37.5876 16.2201 37.3848 16.4643 37.1336 16.6688C36.8824 16.8734 36.5871 17.032 36.2478 17.1447C35.9084 17.2574 35.5448 17.3138 35.157 17.3138C34.4959 17.3138 33.956 17.1885 33.5373 16.9381C33.1186 16.6876 32.7858 16.3578 32.539 15.9487C32.2922 15.5396 32.1225 15.0741 32.03 14.5523C31.9374 14.0305 31.8912 13.4941 31.8912 12.943V12.5047C31.8912 11.9704 31.9374 11.4402 32.03 10.9142C32.1225 10.3882 32.2922 9.92069 32.539 9.51158C32.7858 9.10248 33.1208 8.7706 33.5439 8.51596C33.967 8.26131 34.5047 8.13399 35.157 8.13399C35.5889 8.13399 35.9767 8.20495 36.3205 8.34689C36.6643 8.48882 36.9573 8.68085 37.1997 8.92297C37.4421 9.1651 37.6317 9.44896 37.7683 9.77458C37.9049 10.1002 37.982 10.4425 37.9997 10.8015H41.0275C41.001 10.0501 40.8446 9.3613 40.5581 8.73512C40.2716 8.10894 39.875 7.57042 39.3681 7.11958C38.8613 6.66873 38.2531 6.31807 37.5435 6.06759C36.8339 5.81712 36.0472 5.69188 35.1834 5.69188C34.0816 5.69188 33.1252 5.87139 32.3143 6.2304C31.5033 6.58941 30.8268 7.07992 30.2847 7.70192C29.7426 8.32393 29.3393 9.04821 29.0749 9.87477C28.8105 10.7013 28.6782 11.578 28.6782 12.5047V12.943C28.6782 13.8698 28.8105 14.7464 29.0749 15.573C29.3393 16.3996 29.7426 17.1218 30.2847 17.7396C30.8268 18.3574 31.5055 18.8458 32.3209 19.2048C33.1362 19.5639 34.0948 19.7434 35.1966 19.7434ZM49.7539 19.7434C50.4679 19.7434 51.1114 19.6703 51.6843 19.5242C52.2572 19.3781 52.7707 19.1861 53.2246 18.9481C53.6786 18.7102 54.0753 18.4388 54.4146 18.1341C54.754 17.8293 55.0382 17.5142 55.2674 17.1885L53.5354 15.6231C53.1034 16.1491 52.5944 16.5624 52.0082 16.8629C51.4221 17.1635 50.7323 17.3138 49.939 17.3138C49.3749 17.3138 48.8702 17.2219 48.4251 17.0383C47.98 16.8546 47.5943 16.602 47.2682 16.2806C46.9421 15.9591 46.6842 15.5772 46.4947 15.1347C46.3052 14.6922 46.1884 14.2079 46.1443 13.6819H55.4922V12.3795C55.4922 11.4026 55.3688 10.5051 55.122 9.68691C54.8752 8.8687 54.5006 8.16321 53.9981 7.57042C53.4957 6.97764 52.861 6.51636 52.0942 6.18657C51.3273 5.85678 50.4238 5.69188 49.3837 5.69188C48.4758 5.69188 47.6274 5.85678 46.8385 6.18657C46.0496 6.51636 45.3642 6.9839 44.7825 7.58921C44.2007 8.19452 43.7424 8.92923 43.4074 9.79336C43.0725 10.6575 42.905 11.6239 42.905 12.6926V13.1935C42.905 14.1203 43.0636 14.9844 43.381 15.7859C43.6983 16.5874 44.1522 17.2804 44.7428 17.8648C45.3334 18.4493 46.0518 18.9085 46.898 19.2424C47.7442 19.5764 48.6962 19.7434 49.7539 19.7434ZM52.319 11.4527H46.1972C46.3471 10.4091 46.693 9.59507 47.2351 9.01064C47.7772 8.4262 48.489 8.13399 49.3705 8.13399C49.8993 8.13399 50.3467 8.21956 50.7125 8.39072C51.0783 8.56188 51.3758 8.79148 51.605 9.07952C51.8341 9.36756 52.0038 9.69735 52.114 10.0689C52.2242 10.4404 52.2925 10.8266 52.319 11.2273V11.4527ZM61.4024 19.4929V0.256645H58.1895V19.4929H61.4024ZM69.3223 19.7434C69.7366 19.7434 70.1266 19.7037 70.4924 19.6244C70.8582 19.5451 71.1976 19.4365 71.5105 19.2988C71.8234 19.161 72.1099 19.0003 72.3699 18.8166C72.63 18.6329 72.8657 18.4367 73.0773 18.228C73.1214 18.4785 73.1721 18.7122 73.2293 18.9293C73.2866 19.1464 73.3594 19.3343 73.4475 19.4929H76.7265V19.28C76.3651 18.5536 76.1844 17.581 76.1844 16.362V10.3507C76.1844 9.5742 76.0478 8.89584 75.7746 8.31558C75.5013 7.73532 75.1179 7.25107 74.6243 6.86284C74.1306 6.47461 73.5445 6.18239 72.8657 5.98619C72.187 5.78999 71.4466 5.69188 70.6445 5.69188C69.7454 5.69188 68.9322 5.80877 68.205 6.04255C67.4778 6.27632 66.8586 6.58732 66.3474 6.97555C65.8361 7.36379 65.4417 7.80629 65.164 8.30305C64.8863 8.79982 64.7475 9.31538 64.7475 9.84972H67.9604C67.9604 9.5909 68.0199 9.34877 68.1389 9.12335C68.2579 8.89793 68.4254 8.70381 68.6413 8.541C68.8573 8.3782 69.1195 8.24879 69.4281 8.15277C69.7366 8.05676 70.0803 8.00875 70.4594 8.00875C71.3056 8.00875 71.9358 8.21956 72.3501 8.64119C72.7644 9.06282 72.9715 9.62429 72.9715 10.3256V11.2148H70.9486C69.9173 11.2148 68.9983 11.3129 68.1918 11.5091C67.3853 11.7053 66.7043 11.9913 66.149 12.367C65.5937 12.7427 65.1706 13.2102 64.8797 13.7696C64.5889 14.329 64.4434 14.9719 64.4434 15.6982C64.4434 16.2743 64.5646 16.8087 64.807 17.3013C65.0494 17.7939 65.3844 18.2217 65.8119 18.5849C66.2394 18.9481 66.7528 19.232 67.3522 19.4365C67.9516 19.6411 68.6083 19.7434 69.3223 19.7434ZM69.9173 17.3013C69.5471 17.3013 69.2231 17.2533 68.9455 17.1572C68.6678 17.0612 68.432 16.9276 68.2381 16.7565C68.0442 16.5853 67.8987 16.3829 67.8018 16.1491C67.7048 15.9153 67.6563 15.6607 67.6563 15.3851C67.6563 14.6671 67.956 14.1119 68.5554 13.7195C69.1548 13.3271 70.0495 13.1309 71.2394 13.1309H72.9715V15.6857C72.8569 15.8861 72.7027 16.0844 72.5088 16.2806C72.3148 16.4768 72.0879 16.65 71.8278 16.8003C71.5678 16.9506 71.2769 17.0717 70.9552 17.1635C70.6334 17.2553 70.2875 17.3013 69.9173 17.3013ZM82.716 19.4929V9.84972C83.0069 9.34043 83.397 8.9355 83.8862 8.63493C84.3754 8.33436 84.9505 8.18408 85.6116 8.18408C86.0171 8.18408 86.3763 8.22791 86.6892 8.31558C87.0021 8.40324 87.2644 8.54727 87.4759 8.74764C87.6875 8.94802 87.8483 9.20893 87.9585 9.53037C88.0687 9.85181 88.1238 10.2463 88.1238 10.7138V19.4929H91.3367V10.7389C91.3367 9.8205 91.2287 9.03986 91.0128 8.39698C90.7968 7.7541 90.4905 7.23229 90.0938 6.83153C89.6972 6.43078 89.219 6.14065 88.6593 5.96114C88.0995 5.78164 87.4759 5.69188 86.7884 5.69188C85.9245 5.69188 85.14 5.85052 84.4349 6.16778C83.7297 6.48505 83.1259 6.93172 82.6235 7.50781L82.5309 5.94236H79.5031V19.4929H82.716ZM100.526 19.7434C101.319 19.7434 102.064 19.6202 102.76 19.3739C103.457 19.1276 104.067 18.7895 104.592 18.3595C105.116 17.9295 105.535 17.4265 105.848 16.8504C106.161 16.2743 106.33 15.6607 106.357 15.0094H103.329C103.311 15.3434 103.225 15.6523 103.071 15.9362C102.917 16.2201 102.714 16.4643 102.463 16.6688C102.212 16.8734 101.916 17.032 101.577 17.1447C101.238 17.2574 100.874 17.3138 100.486 17.3138C99.8251 17.3138 99.2852 17.1885 98.8666 16.9381C98.4479 16.6876 98.1151 16.3578 97.8683 15.9487C97.6215 15.5396 97.4518 15.0741 97.3593 14.5523C97.2667 14.0305 97.2204 13.4941 97.2204 12.943V12.5047C97.2204 11.9704 97.2667 11.4402 97.3593 10.9142C97.4518 10.3882 97.6215 9.92069 97.8683 9.51158C98.1151 9.10248 98.4501 8.7706 98.8732 8.51596C99.2963 8.26131 99.834 8.13399 100.486 8.13399C100.918 8.13399 101.306 8.20495 101.65 8.34689C101.994 8.48882 102.287 8.68085 102.529 8.92297C102.771 9.1651 102.961 9.44896 103.098 9.77458C103.234 10.1002 103.311 10.4425 103.329 10.8015H106.357C106.33 10.0501 106.174 9.3613 105.887 8.73512C105.601 8.10894 105.204 7.57042 104.697 7.11958C104.191 6.66873 103.582 6.31807 102.873 6.06759C102.163 5.81712 101.377 5.69188 100.513 5.69188C99.4109 5.69188 98.4545 5.87139 97.6435 6.2304C96.8326 6.58941 96.1561 7.07992 95.614 7.70192C95.0719 8.32393 94.6686 9.04821 94.4042 9.87477C94.1397 10.7013 94.0075 11.578 94.0075 12.5047V12.943C94.0075 13.8698 94.1397 14.7464 94.4042 15.573C94.6686 16.3996 95.0719 17.1218 95.614 17.7396C96.1561 18.3574 96.8348 18.8458 97.6501 19.2048C98.4655 19.5639 99.4241 19.7434 100.526 19.7434ZM115.083 19.7434C115.797 19.7434 116.441 19.6703 117.014 19.5242C117.587 19.3781 118.1 19.1861 118.554 18.9481C119.008 18.7102 119.405 18.4388 119.744 18.1341C120.083 17.8293 120.368 17.5142 120.597 17.1885L118.865 15.6231C118.433 16.1491 117.924 16.5624 117.338 16.8629C116.751 17.1635 116.062 17.3138 115.268 17.3138C114.704 17.3138 114.2 17.2219 113.754 17.0383C113.309 16.8546 112.924 16.602 112.597 16.2806C112.271 15.9591 112.014 15.5772 111.824 15.1347C111.634 14.6922 111.518 14.2079 111.474 13.6819H120.821V12.3795C120.821 11.4026 120.698 10.5051 120.451 9.68691C120.204 8.8687 119.83 8.16321 119.327 7.57042C118.825 6.97764 118.19 6.51636 117.423 6.18657C116.657 5.85678 115.753 5.69188 114.713 5.69188C113.805 5.69188 112.957 5.85678 112.168 6.18657C111.379 6.51636 110.694 6.9839 110.112 7.58921C109.53 8.19452 109.072 8.92923 108.737 9.79336C108.402 10.6575 108.234 11.6239 108.234 12.6926V13.1935C108.234 14.1203 108.393 14.9844 108.71 15.7859C109.028 16.5874 109.482 17.2804 110.072 17.8648C110.663 18.4493 111.381 18.9085 112.227 19.2424C113.073 19.5764 114.025 19.7434 115.083 19.7434ZM117.648 11.4527H111.526C111.676 10.4091 112.022 9.59507 112.564 9.01064C113.107 8.4262 113.818 8.13399 114.7 8.13399C115.229 8.13399 115.676 8.21956 116.042 8.39072C116.408 8.56188 116.705 8.79148 116.934 9.07952C117.163 9.36756 117.333 9.69735 117.443 10.0689C117.553 10.4404 117.622 10.8266 117.648 11.2273V11.4527Z" fill="#0F74BD"/>
</svg>
